<svg width="73" height="72" viewBox="0 0 73 72" fill="none" xmlns="http://www.w3.org/2000/svg">
<circle cx="36.5" cy="36" r="36" fill="#F61067" fill-opacity="0.1"/>
<circle cx="36.5" cy="36" r="35.5" stroke="#F61067" stroke-opacity="0.25"/>
<path d="M40.5669 32.1278C40.5669 32.1278 38.4814 38.0063 37.4903 39.0326C36.4992 40.059 34.8638 40.0875 33.8375 39.0965C32.8111 38.1054 32.7826 36.4699 33.7737 35.4436C34.7648 34.4173 40.5669 32.1278 40.5669 32.1278Z" stroke="#F61067" stroke-width="2" stroke-linejoin="round"/>
<path d="M46.0901 45.0901C48.5445 42.6358 50.0625 39.2452 50.0625 35.5C50.0625 28.0096 43.9904 21.9375 36.5 21.9375C29.0096 21.9375 22.9375 28.0096 22.9375 35.5C22.9375 39.2452 24.4555 42.6358 26.9099 45.0901" stroke="#F61067" stroke-width="2" stroke-linecap="round" stroke-linejoin="round"/>
<path d="M36.5 22.5833V25.1667" stroke="#F61067" stroke-width="2" stroke-linecap="round" stroke-linejoin="round"/>
<path d="M46.0877 27.1959L44.08 28.8216" stroke="#F61067" stroke-width="2" stroke-linecap="round" stroke-linejoin="round"/>
<path d="M48.4624 37.5878L45.9454 37.0067" stroke="#F61067" stroke-width="2" stroke-linecap="round" stroke-linejoin="round"/>
<path d="M24.5376 37.5878L27.0547 37.0067" stroke="#F61067" stroke-width="2" stroke-linecap="round" stroke-linejoin="round"/>
<path d="M26.9124 27.1959L28.92 28.8216" stroke="#F61067" stroke-width="2" stroke-linecap="round" stroke-linejoin="round"/>
</svg>
