<svg width="72" height="72" viewBox="0 0 72 72" fill="none" xmlns="http://www.w3.org/2000/svg">
<circle cx="36" cy="36" r="36" fill="#F67110" fill-opacity="0.1"/>
<circle cx="36" cy="36" r="35.5" stroke="#F67110" stroke-opacity="0.25"/>
<path d="M30.375 40.5C30.8226 40.5 31.2518 40.3222 31.5682 40.0057C31.8847 39.6893 32.0625 39.2601 32.0625 38.8125C32.0625 38.3649 31.8847 37.9357 31.5682 37.6193C31.2518 37.3028 30.8226 37.125 30.375 37.125C29.9274 37.125 29.4982 37.3028 29.1818 37.6193C28.8653 37.9357 28.6875 38.3649 28.6875 38.8125C28.6875 39.2601 28.8653 39.6893 29.1818 40.0057C29.4982 40.3222 29.9274 40.5 30.375 40.5ZM32.0625 44.4375C32.0625 44.6591 32.0189 44.8785 31.934 45.0833C31.8492 45.288 31.7249 45.474 31.5682 45.6307C31.4115 45.7874 31.2255 45.9117 31.0208 45.9965C30.816 46.0814 30.5966 46.125 30.375 46.125C30.1534 46.125 29.934 46.0814 29.7292 45.9965C29.5245 45.9117 29.3385 45.7874 29.1818 45.6307C29.0251 45.474 28.9008 45.288 28.816 45.0833C28.7311 44.8785 28.6875 44.6591 28.6875 44.4375C28.6875 43.9899 28.8653 43.5607 29.1818 43.2443C29.4982 42.9278 29.9274 42.75 30.375 42.75C30.8226 42.75 31.2518 42.9278 31.5682 43.2443C31.8847 43.5607 32.0625 43.9899 32.0625 44.4375ZM36 40.5C36.4476 40.5 36.8768 40.3222 37.1932 40.0057C37.5097 39.6893 37.6875 39.2601 37.6875 38.8125C37.6875 38.3649 37.5097 37.9357 37.1932 37.6193C36.8768 37.3028 36.4476 37.125 36 37.125C35.5524 37.125 35.1232 37.3028 34.8068 37.6193C34.4903 37.9357 34.3125 38.3649 34.3125 38.8125C34.3125 39.2601 34.4903 39.6893 34.8068 40.0057C35.1232 40.3222 35.5524 40.5 36 40.5ZM37.6875 44.4375C37.6875 44.8851 37.5097 45.3143 37.1932 45.6307C36.8768 45.9472 36.4476 46.125 36 46.125C35.5524 46.125 35.1232 45.9472 34.8068 45.6307C34.4903 45.3143 34.3125 44.8851 34.3125 44.4375C34.3125 43.9899 34.4903 43.5607 34.8068 43.2443C35.1232 42.9278 35.5524 42.75 36 42.75C36.4476 42.75 36.8768 42.9278 37.1932 43.2443C37.5097 43.5607 37.6875 43.9899 37.6875 44.4375ZM41.625 40.5C42.0726 40.5 42.5018 40.3222 42.8182 40.0057C43.1347 39.6893 43.3125 39.2601 43.3125 38.8125C43.3125 38.3649 43.1347 37.9357 42.8182 37.6193C42.5018 37.3028 42.0726 37.125 41.625 37.125C41.1774 37.125 40.7482 37.3028 40.4318 37.6193C40.1153 37.9357 39.9375 38.3649 39.9375 38.8125C39.9375 39.2601 40.1153 39.6893 40.4318 40.0057C40.7482 40.3222 41.1774 40.5 41.625 40.5ZM43.3125 44.4375C43.3125 44.8851 43.1347 45.3143 42.8182 45.6307C42.5018 45.9472 42.0726 46.125 41.625 46.125C41.1774 46.125 40.7482 45.9472 40.4318 45.6307C40.1153 45.3143 39.9375 44.8851 39.9375 44.4375C39.9375 43.9899 40.1153 43.5607 40.4318 43.2443C40.7482 42.9278 41.1774 42.75 41.625 42.75C42.0726 42.75 42.5018 42.9278 42.8182 43.2443C43.1347 43.5607 43.3125 43.9899 43.3125 44.4375Z" fill="#F67110"/>
<path fill-rule="evenodd" clip-rule="evenodd" d="M31.5 25.875C30.6049 25.875 29.7464 26.2306 29.1135 26.8635C28.4806 27.4964 28.125 28.3549 28.125 29.25V31.5C28.125 32.3951 28.4806 33.2536 29.1135 33.8865C29.7464 34.5194 30.6049 34.875 31.5 34.875H40.5C41.3951 34.875 42.2536 34.5194 42.8865 33.8865C43.5194 33.2536 43.875 32.3951 43.875 31.5V29.25C43.875 28.3549 43.5194 27.4964 42.8865 26.8635C42.2536 26.2306 41.3951 25.875 40.5 25.875H31.5ZM30.375 29.25C30.375 28.9516 30.4935 28.6655 30.7045 28.4545C30.9155 28.2435 31.2016 28.125 31.5 28.125H40.5C40.7984 28.125 41.0845 28.2435 41.2955 28.4545C41.5065 28.6655 41.625 28.9516 41.625 29.25V31.5C41.625 31.7984 41.5065 32.0845 41.2955 32.2955C41.0845 32.5065 40.7984 32.625 40.5 32.625H31.5C31.2016 32.625 30.9155 32.5065 30.7045 32.2955C30.4935 32.0845 30.375 31.7984 30.375 31.5V29.25Z" fill="#F67110"/>
<path fill-rule="evenodd" clip-rule="evenodd" d="M28.125 21.375C26.9315 21.375 25.7869 21.8491 24.943 22.693C24.0991 23.5369 23.625 24.6815 23.625 25.875V46.125C23.625 47.3185 24.0991 48.4631 24.943 49.307C25.7869 50.1509 26.9315 50.625 28.125 50.625H43.875C45.0685 50.625 46.2131 50.1509 47.057 49.307C47.9009 48.4631 48.375 47.3185 48.375 46.125V25.875C48.375 24.6815 47.9009 23.5369 47.057 22.693C46.2131 21.8491 45.0685 21.375 43.875 21.375H28.125ZM25.875 25.875C25.875 25.2783 26.1121 24.706 26.534 24.284C26.956 23.8621 27.5283 23.625 28.125 23.625H43.875C44.4717 23.625 45.044 23.8621 45.466 24.284C45.8879 24.706 46.125 25.2783 46.125 25.875V46.125C46.125 46.7217 45.8879 47.294 45.466 47.716C45.044 48.1379 44.4717 48.375 43.875 48.375H28.125C27.5283 48.375 26.956 48.1379 26.534 47.716C26.1121 47.294 25.875 46.7217 25.875 46.125V25.875Z" fill="#F67110"/>
</svg>
